<svg xmlns="http://www.w3.org/2000/svg" width="31" height="26" viewBox="0 0 31 26">
  <metadata><?xpacket begin="﻿" id="W5M0MpCehiHzreSzNTczkc9d"?>
<x:xmpmeta xmlns:x="adobe:ns:meta/" x:xmptk="Adobe XMP Core 5.6-c142 79.160924, 2017/07/13-01:06:39        ">
   <rdf:RDF xmlns:rdf="http://www.w3.org/1999/02/22-rdf-syntax-ns#">
      <rdf:Description rdf:about=""/>
   </rdf:RDF>
</x:xmpmeta>
                                                                                                    
                                                                                                    
                                                                                                    
                                                                                                    
                                                                                                    
                                                                                                    
                                                                                                    
                                                                                                    
                                                                                                    
                                                                                                    
                                                                                                    
                                                                                                    
                                                                                                    
                                                                                                    
                                                                                                    
                                                                                                    
                                                                                                    
                                                                                                    
                                                                                                    
                                                                                                    
                           
<?xpacket end="w"?></metadata>
<defs>
    <style>
      .cls-1 {
        fill: #fff;
        fill-rule: evenodd;
      }
    </style>
  </defs>
  <path id="bullet_focus_porduct" class="cls-1" d="M526,867l-8.957-9.477v0.036a13,13,0,1,0,0,18.883v0.036Zm-18.684,8.293c0,0.055-.008.11-0.015,0.195-0.125-.053-0.23-0.093-0.331-0.143q-3.143-1.56-6.284-3.121a0.453,0.453,0,0,1-.314-0.463c0.012-2.738.007-5.476,0.008-8.214,0-.1.013-0.2,0.022-0.336,0.126,0.053.22,0.086,0.309,0.13q3.171,1.575,6.342,3.15a0.374,0.374,0,0,1,.27.38C507.313,869.678,507.317,872.485,507.316,875.292Zm0.839-10.582c-2.068-1.041-4.144-2.067-6.217-3.1-0.06-.03-0.116-0.068-0.228-0.134,2.2-1.094,4.341-2.164,6.489-3.226a0.406,0.406,0,0,1,.315-0.008q3.209,1.584,6.407,3.185a0.384,0.384,0,0,1,.066.068c-0.113.064-.216,0.13-0.325,0.184q-3,1.494-6,2.984A0.5,0.5,0,0,1,508.155,864.71Zm7.88,7.526c-2.1,1.029-4.184,2.074-6.275,3.113-0.1.05-.206,0.089-0.345,0.149v-0.341q0-4.1,0-8.207a0.4,0.4,0,0,1,.225-0.442c2.158-1.061,4.309-2.136,6.463-3.206,0.059-.029.124-0.049,0.249-0.1v0.4c0,2.7,0,5.4.006,8.1A0.5,0.5,0,0,1,516.035,872.236Z" transform="translate(-495 -854)"/>
</svg>
