<svg xmlns="http://www.w3.org/2000/svg" width="59" height="50" viewBox="0 0 59 50">
  <metadata><?xpacket begin="﻿" id="W5M0MpCehiHzreSzNTczkc9d"?>
<x:xmpmeta xmlns:x="adobe:ns:meta/" x:xmptk="Adobe XMP Core 5.6-c142 79.160924, 2017/07/13-01:06:39        ">
   <rdf:RDF xmlns:rdf="http://www.w3.org/1999/02/22-rdf-syntax-ns#">
      <rdf:Description rdf:about=""/>
   </rdf:RDF>
</x:xmpmeta>
                                                                                                    
                                                                                                    
                                                                                                    
                                                                                                    
                                                                                                    
                                                                                                    
                                                                                                    
                                                                                                    
                                                                                                    
                                                                                                    
                                                                                                    
                                                                                                    
                                                                                                    
                                                                                                    
                                                                                                    
                                                                                                    
                                                                                                    
                                                                                                    
                                                                                                    
                                                                                                    
                           
<?xpacket end="w"?></metadata>
<defs>
    <style>
      .cls-1 {
        fill: #017fb8;
        fill-rule: evenodd;
      }
    </style>
  </defs>
  <path id="bullet_info_indi" class="cls-1" d="M549,1072l-17.047-18.23v0.07a25,25,0,1,0,0,36.32v0.06Zm-25.968-10.43a2.367,2.367,0,1,1-1.753,2.84A2.351,2.351,0,0,1,523.032,1061.57Zm-6.883-4.88a2.365,2.365,0,1,1-2.352,2.37A2.361,2.361,0,0,1,516.149,1056.69Zm-14.84,17.37a2.365,2.365,0,1,1,2.353-2.36A2.359,2.359,0,0,1,501.309,1074.06Zm7.42,0a2.365,2.365,0,1,1,2.353-2.36A2.358,2.358,0,0,1,508.729,1074.06Zm7.42-4.73a2.365,2.365,0,1,1-2.352,2.37A2.361,2.361,0,0,1,516.149,1069.33Zm0.3,17.97a2.365,2.365,0,1,1,2.353-2.36A2.358,2.358,0,0,1,516.449,1087.3Zm7.121-5.11a2.365,2.365,0,1,1,2.352-2.37A2.361,2.361,0,0,1,523.57,1082.19Zm0-8.13a2.365,2.365,0,1,1,2.352-2.36A2.358,2.358,0,0,1,523.57,1074.06Zm7.248,0a2.365,2.365,0,1,1,2.352-2.36A2.358,2.358,0,0,1,530.818,1074.06Z" transform="translate(-490 -1047)"/>
</svg>
