<svg xmlns="http://www.w3.org/2000/svg" width="89" height="75" viewBox="0 0 89 75">
  <g id="Bullet_main" transform="translate(-244 -870)">
    <g id="bullet_btm" transform="translate(-133.88 749.056)">
      <path id="Path_108" data-name="Path 108" d="M466.879,158.444,441.165,131.1v.1a37.5,37.5,0,1,0,0,54.474v.1Z" fill="#005dab"/>
    </g>
    <g id="bullet_graph" transform="translate(-140.09 748.09)">
      <path id="Path_109" data-name="Path 109" d="M464.993,158.91l-21.2-22.231v.083a31.049,31.049,0,0,0-21.247-8.346,30.5,30.5,0,1,0,0,60.988,31.054,31.054,0,0,0,21.247-8.346v.083Z" fill="none" stroke="#ffbc00" stroke-miterlimit="10" stroke-width="3.033"/>
      <g id="Group_29" data-name="Group 29">
        <path id="Path_110" data-name="Path 110" d="M433.32,162.229a2.73,2.73,0,1,1,2.769-2.73A2.749,2.749,0,0,1,433.32,162.229Z" fill="#ffbc00"/>
        <path id="Path_111" data-name="Path 111" d="M441.85,162.229a2.73,2.73,0,1,1,2.769-2.73A2.749,2.749,0,0,1,441.85,162.229Z" fill="#ffbc00"/>
        <path id="Path_112" data-name="Path 112" d="M433.952,153.127a2.771,2.771,0,0,1-3.328-2.035,2.73,2.73,0,0,1,2.064-3.281,2.771,2.771,0,0,1,3.328,2.035A2.729,2.729,0,0,1,433.952,153.127Z" fill="#ffbc00"/>
        <path id="Path_113" data-name="Path 113" d="M433.32,171.608a2.73,2.73,0,1,1,2.769-2.73A2.749,2.749,0,0,1,433.32,171.608Z" fill="#ffbc00"/>
        <path id="Path_114" data-name="Path 114" d="M424.939,177.513a2.73,2.73,0,1,1,2.769-2.73A2.75,2.75,0,0,1,424.939,177.513Z" fill="#ffbc00"/>
        <path id="Path_115" data-name="Path 115" d="M424.587,147.641a2.73,2.73,0,1,1,2.769-2.73A2.75,2.75,0,0,1,424.587,147.641Z" fill="#ffbc00"/>
        <path id="Path_116" data-name="Path 116" d="M424.587,162.229a2.73,2.73,0,1,1,2.769-2.73A2.75,2.75,0,0,1,424.587,162.229Z" fill="#ffbc00"/>
        <path id="Path_117" data-name="Path 117" d="M415.855,162.229a2.73,2.73,0,1,1,2.769-2.73A2.749,2.749,0,0,1,415.855,162.229Z" fill="#ffbc00"/>
        <path id="Path_118" data-name="Path 118" d="M407.122,162.229a2.73,2.73,0,1,1,2.769-2.73A2.749,2.749,0,0,1,407.122,162.229Z" fill="#ffbc00"/>
      </g>
    </g>
  </g>
</svg>
