<svg xmlns="http://www.w3.org/2000/svg" width="40" height="40" viewBox="0 0 40 40">
  <metadata><?xpacket begin="﻿" id="W5M0MpCehiHzreSzNTczkc9d"?>
<x:xmpmeta xmlns:x="adobe:ns:meta/" x:xmptk="Adobe XMP Core 5.6-c142 79.160924, 2017/07/13-01:06:39        ">
   <rdf:RDF xmlns:rdf="http://www.w3.org/1999/02/22-rdf-syntax-ns#">
      <rdf:Description rdf:about=""/>
   </rdf:RDF>
</x:xmpmeta>
                                                                                                    
                                                                                                    
                                                                                                    
                                                                                                    
                                                                                                    
                                                                                                    
                                                                                                    
                                                                                                    
                                                                                                    
                                                                                                    
                                                                                                    
                                                                                                    
                                                                                                    
                                                                                                    
                                                                                                    
                                                                                                    
                                                                                                    
                                                                                                    
                                                                                                    
                                                                                                    
                           
<?xpacket end="w"?></metadata>
<defs>
    <style>
      .cls-1 {
        fill: #017fb8;
        fill-rule: evenodd;
      }
    </style>
  </defs>
  <path id="bullet_clean" class="cls-1" d="M501.834,1501.7c0.177,1.34.353,2.69,0.531,4.04,0.138,1.03.282,2.06,0.414,3.1a0.228,0.228,0,0,0,.224.24,5.6,5.6,0,0,1,1.824.59,5.122,5.122,0,0,0,4.825.01,6.877,6.877,0,0,1,6.187-.02c0.375,0.18.763,0.33,1.178,0.5,0.389-2.92.773-5.8,1.158-8.7h-16.36C501.822,1501.55,501.825,1501.63,501.834,1501.7Zm23.608-8.7H494.558a4.419,4.419,0,0,0-4.556,4.57q0,7.71,0,15.42,0,7.725,0,15.46a4.422,4.422,0,0,0,4.53,4.55h30.936a4.42,4.42,0,0,0,4.53-4.55q0-15.435,0-30.88A4.419,4.419,0,0,0,525.442,1493Zm-4.707,7.5c-0.085.4-.116,0.82-0.171,1.24q-0.525,3.975-1.052,7.97c-0.354,2.66-.718,5.32-1.072,7.98s-0.7,5.31-1.052,7.97a1.27,1.27,0,0,1-1.282,1.28q-6.115.015-12.23,0a1.208,1.208,0,0,1-1.239-1.06c-0.116-.77-0.217-1.53-0.319-2.29-0.261-1.98-.517-3.96-0.78-5.93-0.245-1.84-.5-3.68-0.745-5.52s-0.482-3.69-.726-5.53c-0.275-2.07-.563-4.15-0.818-6.22a1.179,1.179,0,0,1,.194-0.76,3.253,3.253,0,0,1,.688-0.58h19.72a0.342,0.342,0,0,0,.08.06A1.265,1.265,0,0,1,520.735,1500.5Z" transform="translate(-490 -1493)"/>
</svg>
