<svg id="bullet_sub_cat" xmlns="http://www.w3.org/2000/svg" width="117" height="79.188" viewBox="0 0 117 79.188">
  <metadata><?xpacket begin="﻿" id="W5M0MpCehiHzreSzNTczkc9d"?>
<x:xmpmeta xmlns:x="adobe:ns:meta/" x:xmptk="Adobe XMP Core 5.6-c142 79.160924, 2017/07/13-01:06:39        ">
   <rdf:RDF xmlns:rdf="http://www.w3.org/1999/02/22-rdf-syntax-ns#">
      <rdf:Description rdf:about=""/>
   </rdf:RDF>
</x:xmpmeta>
                                                                                                    
                                                                                                    
                                                                                                    
                                                                                                    
                                                                                                    
                                                                                                    
                                                                                                    
                                                                                                    
                                                                                                    
                                                                                                    
                                                                                                    
                                                                                                    
                                                                                                    
                                                                                                    
                                                                                                    
                                                                                                    
                                                                                                    
                                                                                                    
                                                                                                    
                                                                                                    
                           
<?xpacket end="w"?></metadata>
<defs>
    <style>
      .cls-1 {
        fill: #0d6fb8;
      }

      .cls-1, .cls-2, .cls-3 {
        fill-rule: evenodd;
      }

      .cls-2 {
        fill: #fff;
      }

      .cls-3 {
        fill: #ebaf21;
      }
    </style>
  </defs>
  <path class="cls-1" d="M607,376.46l-24.314-25.852v0.1a35.459,35.459,0,1,0,0,51.51v0.1Z" transform="translate(-490 -341)"/>
  <path class="cls-2" d="M539.454,420.175c-20.312,0-36.837-16.271-36.837-36.27s16.525-36.27,36.837-36.27a37,37,0,0,1,25.306,9.926l0.116,0.115,25.141,26.229L564.76,410.249A36.992,36.992,0,0,1,539.454,420.175Zm0-66.828c-17.114,0-31.036,13.708-31.036,30.558s13.922,30.558,31.036,30.558a31.164,31.164,0,0,0,21.261-8.309l21.325-22.249-21.325-22.249A31.164,31.164,0,0,0,539.454,353.347Z" transform="translate(-490 -341)"/>
  <path class="cls-3" d="M543.557,390.715a5.232,5.232,0,1,1,5.12-5.231A5.176,5.176,0,0,1,543.557,390.715Zm15.772,0a5.232,5.232,0,1,1,5.119-5.231A5.176,5.176,0,0,1,559.329,390.715Zm-14.6-17.442a5.117,5.117,0,0,1-6.153-3.9,5.235,5.235,0,0,1,3.815-6.287,5.117,5.117,0,0,1,6.154,3.9A5.237,5.237,0,0,1,544.726,373.273Zm-1.169,35.411a5.232,5.232,0,1,1,5.12-5.23A5.175,5.175,0,0,1,543.557,408.684ZM528.062,420a5.232,5.232,0,1,1,5.12-5.231A5.176,5.176,0,0,1,528.062,420Zm-0.651-57.237a5.232,5.232,0,1,1,5.119-5.23A5.177,5.177,0,0,1,527.411,362.762Zm0,27.953a5.232,5.232,0,1,1,5.119-5.231A5.177,5.177,0,0,1,527.411,390.715Zm-16.146,0a5.232,5.232,0,1,1,5.119-5.231A5.176,5.176,0,0,1,511.265,390.715Zm-16.146,0a5.232,5.232,0,1,1,5.119-5.231A5.176,5.176,0,0,1,495.119,390.715Z" transform="translate(-490 -341)"/>
</svg>
