<svg xmlns="http://www.w3.org/2000/svg" width="40" height="40" viewBox="0 0 40 40">
  <metadata><?xpacket begin="﻿" id="W5M0MpCehiHzreSzNTczkc9d"?>
<x:xmpmeta xmlns:x="adobe:ns:meta/" x:xmptk="Adobe XMP Core 5.6-c142 79.160924, 2017/07/13-01:06:39        ">
   <rdf:RDF xmlns:rdf="http://www.w3.org/1999/02/22-rdf-syntax-ns#">
      <rdf:Description rdf:about=""/>
   </rdf:RDF>
</x:xmpmeta>
                                                                                                    
                                                                                                    
                                                                                                    
                                                                                                    
                                                                                                    
                                                                                                    
                                                                                                    
                                                                                                    
                                                                                                    
                                                                                                    
                                                                                                    
                                                                                                    
                                                                                                    
                                                                                                    
                                                                                                    
                                                                                                    
                                                                                                    
                                                                                                    
                                                                                                    
                                                                                                    
                           
<?xpacket end="w"?></metadata>
<defs>
    <style>
      .cls-1 {
        fill: #017fb8;
        fill-rule: evenodd;
      }
    </style>
  </defs>
  <path id="bullet_construction" class="cls-1" d="M512.372,1701.94H504.5v4.4h7.871v-4.4Zm-2.985,10.2h7.819v-4.46h-7.819v4.46ZM525.442,1688H494.558a4.42,4.42,0,0,0-4.556,4.57q0,7.71,0,15.42,0,7.725,0,15.46a4.422,4.422,0,0,0,4.53,4.55h30.936a4.42,4.42,0,0,0,4.53-4.55q0-15.435,0-30.88A4.419,4.419,0,0,0,525.442,1688Zm-5.285,28.99a11.379,11.379,0,0,1-8.182,5.88c-0.343.07-.688,0.11-1.032,0.17h-1.82a1.374,1.374,0,0,0-.2-0.05,10.883,10.883,0,0,1-4.026-1.15,11.446,11.446,0,0,1-6.084-7.39,9.971,9.971,0,0,1,.349-6.52,27.61,27.61,0,0,1,3.433-5.98c1.8-2.48,3.8-4.79,5.809-7.1,0.531-.61,1.055-1.23,1.623-1.89,0.036,0.06.053,0.11,0.084,0.15,2.063,2.47,4.157,4.91,6.183,7.41q0.564,0.69,1.1,1.41h-3.56v4.41h6.3c0.158,0.32.31,0.65,0.455,0.97,0.053,0.13.105,0.25,0.156,0.37h-2.015v4.46h2.847A10.784,10.784,0,0,1,520.157,1716.99Z" transform="translate(-490 -1688)"/>
</svg>
