<svg xmlns="http://www.w3.org/2000/svg" width="40" height="40" viewBox="0 0 40 40">
  <metadata><?xpacket begin="﻿" id="W5M0MpCehiHzreSzNTczkc9d"?>
<x:xmpmeta xmlns:x="adobe:ns:meta/" x:xmptk="Adobe XMP Core 5.6-c142 79.160924, 2017/07/13-01:06:39        ">
   <rdf:RDF xmlns:rdf="http://www.w3.org/1999/02/22-rdf-syntax-ns#">
      <rdf:Description rdf:about=""/>
   </rdf:RDF>
</x:xmpmeta>
                                                                                                    
                                                                                                    
                                                                                                    
                                                                                                    
                                                                                                    
                                                                                                    
                                                                                                    
                                                                                                    
                                                                                                    
                                                                                                    
                                                                                                    
                                                                                                    
                                                                                                    
                                                                                                    
                                                                                                    
                                                                                                    
                                                                                                    
                                                                                                    
                                                                                                    
                                                                                                    
                           
<?xpacket end="w"?></metadata>
<defs>
    <style>
      .cls-1 {
        fill: #017fb8;
        fill-rule: evenodd;
      }
    </style>
  </defs>
  <path id="bullet_trans" class="cls-1" d="M525.442,1320H494.558a4.419,4.419,0,0,0-4.556,4.57q0,7.71,0,15.42,0,7.725,0,15.46a4.422,4.422,0,0,0,4.53,4.55h30.936a4.42,4.42,0,0,0,4.53-4.55q0-15.435,0-30.88A4.419,4.419,0,0,0,525.442,1320Zm-7.172,6a4.02,4.02,0,1,1-4.021,4.02A4.021,4.021,0,0,1,518.27,1326Zm-16.507,28a4.02,4.02,0,1,1,4.022-4.02A4.02,4.02,0,0,1,501.763,1354Zm20.072-4.01a7.355,7.355,0,0,1-4.621,2.72,11.726,11.726,0,0,1-1.914.17c-1.86,0-3.868.01-6.51,0.01h-2.071a5.755,5.755,0,0,0,.306-5.22h8.536a2.676,2.676,0,0,0,2.363-4.17,2.788,2.788,0,0,0-2.307-1.18c-0.5,0-1.283-.01-2.393-0.01-0.829,0-1.708,0-2.479.01h-1.818c-0.016,0-.032-0.01-0.048-0.01h-2.413c-1.349,0-2.813-.01-3.444-0.07a7.034,7.034,0,0,1-6.37-5.72,7.518,7.518,0,0,1,1.32-6.22,6.984,6.984,0,0,1,4.752-2.74,14.164,14.164,0,0,1,1.847-.12h8.566a5.73,5.73,0,0,0,.029,5.21h-1.83c-2.487,0-4.919,0-7.339-.01a2.3,2.3,0,0,0-2.305,1.69,2.268,2.268,0,0,0,.354,1.87,2.074,2.074,0,0,0,1.512.88c0.489,0.04,1.752.04,2.8,0.04h2.254c0.048,0,.1.01,0.145,0.01l0.181-.01a0.173,0.173,0,0,0,.071.01h0.269c0.443,0,1-.01,1.6-0.01h0.071c0.719-.01,1.508-0.01,2.27-0.01,1.312,0,2.238.01,2.831,0.05a7.562,7.562,0,0,1,7.363,6.48A7.924,7.924,0,0,1,521.835,1349.99Z" transform="translate(-490 -1320)"/>
</svg>
