<svg xmlns="http://www.w3.org/2000/svg" width="30" height="30.03" viewBox="0 0 30 30.03">
  <metadata><?xpacket begin="﻿" id="W5M0MpCehiHzreSzNTczkc9d"?>
<x:xmpmeta xmlns:x="adobe:ns:meta/" x:xmptk="Adobe XMP Core 5.6-c142 79.160924, 2017/07/13-01:06:39        ">
   <rdf:RDF xmlns:rdf="http://www.w3.org/1999/02/22-rdf-syntax-ns#">
      <rdf:Description rdf:about=""/>
   </rdf:RDF>
</x:xmpmeta>
                                                                                                    
                                                                                                    
                                                                                                    
                                                                                                    
                                                                                                    
                                                                                                    
                                                                                                    
                                                                                                    
                                                                                                    
                                                                                                    
                                                                                                    
                                                                                                    
                                                                                                    
                                                                                                    
                                                                                                    
                                                                                                    
                                                                                                    
                                                                                                    
                                                                                                    
                                                                                                    
                           
<?xpacket end="w"?></metadata>
<defs>
    <style>
      .cls-1 {
        fill: #40beb0;
        fill-rule: evenodd;
      }
    </style>
  </defs>
  <path id="icon_check_02" class="cls-1" d="M613,2063.36a26.99,26.99,0,0,1-.635,2.93c-1.977,5.98-6.078,9.63-12.285,10.56a14.892,14.892,0,0,1-16.8-12.03,14.99,14.99,0,0,1,29.216-6.65c0.222,0.81.337,1.65,0.5,2.48v2.71Zm-17.281-.19a0.488,0.488,0,0,1-.131-0.07c-0.873-.87-1.736-1.74-2.619-2.6a2.207,2.207,0,1,0-3.1,3.14q2.138,2.16,4.3,4.31a2.183,2.183,0,0,0,3.374-.14q3.8-4.35,7.594-8.7a2.23,2.23,0,0,0-.119-3.21,2.2,2.2,0,0,0-3.224.32q-1.947,2.235-3.9,4.47C597.174,2061.52,596.442,2062.35,595.719,2063.17Z" transform="translate(-583 -2047)"/>
</svg>
