<svg id="icon_twitter" xmlns="http://www.w3.org/2000/svg" xmlns:xlink="http://www.w3.org/1999/xlink" width="62.1" height="62.1" viewBox="0 0 62.1 62.1">
  <defs>
    <pattern id="pattern" preserveAspectRatio="none" width="100%" height="100%" viewBox="0 0 0 0">
      <image/>
    </pattern>
  </defs>
  <rect id="Place_Your_Design_Here" data-name="Place Your Design Here" fill="url(#pattern)"/>
  <g id="Ellipse" transform="translate(6.9 6.9)" fill="none" stroke="#fff" stroke-width="3.833">
    <circle cx="27.6" cy="27.6" r="27.6" stroke="none"/>
    <circle cx="27.6" cy="27.6" r="25.683" fill="none"/>
  </g>
  <g id="Twitter" transform="translate(-43.075 -175.025)">
    <path id="Path_119" data-name="Path 119" d="M63.009,218.373a16.689,16.689,0,0,0,9.041,2.652c10.952,0,17.137-9.257,16.766-17.56a11.961,11.961,0,0,0,2.942-3.056,11.756,11.756,0,0,1-3.387.929,5.91,5.91,0,0,0,2.593-3.266,11.827,11.827,0,0,1-3.744,1.433,5.9,5.9,0,0,0-10.052,5.385,16.735,16.735,0,0,1-12.157-6.168,5.913,5.913,0,0,0,1.825,7.882,5.876,5.876,0,0,1-2.672-.739,5.91,5.91,0,0,0,4.731,5.864,5.9,5.9,0,0,1-2.662.1,5.9,5.9,0,0,0,5.509,4.1A11.853,11.853,0,0,1,63.009,218.373Z" fill="#fff"/>
  </g>
</svg>
