<svg id="icon_linkedin" xmlns="http://www.w3.org/2000/svg" xmlns:xlink="http://www.w3.org/1999/xlink" width="63" height="63" viewBox="0 0 63 63">
  <defs>
    <pattern id="pattern" preserveAspectRatio="none" width="100%" height="100%" viewBox="0 0 0 0">
      <image/>
    </pattern>
  </defs>
  <rect id="Place_Your_Design_Here" data-name="Place Your Design Here" fill="url(#pattern)"/>
  <path id="Shape_1" data-name="Shape 1" d="M43.995,49V39.934c0-2.163-.052-4.945-3.216-4.945-3.216,0-3.7,2.352-3.7,4.791V49H30.907V29.889h5.93v3h.086a6.553,6.553,0,0,1,5.844-3c6.242,0,7.4,3.863,7.4,8.877V49ZM20.238,49V29.89H26.65V49Zm.008-24.418A3.193,3.193,0,1,1,23.438,27.8,3.2,3.2,0,0,1,20.245,24.582Z" fill="#fff"/>
  <g id="Ellipse" transform="translate(7 7)" fill="none" stroke="#fff" stroke-width="3.889">
    <circle cx="28" cy="28" r="28" stroke="none"/>
    <circle cx="28" cy="28" r="26.056" fill="none"/>
  </g>
</svg>
